#Comment line ignore any data following # character 
#Hierarchical Translation and Rotation (.htr) file 
[Header]	
#Header keywords are followed by a single value 
FileType HTR		#Single word string
DataType HTRS		#Translation followed by rotation and scale data
FileVersion 1		#integer
NumSegments 84		#integer
NumFrames 2		#integer
DataFrameRate 30		#integer, data frame rate in this file
EulerRotationOrder ZYX
CalibrationUnits mm
RotationUnits Degrees
GlobalAxisofGravity Y
BoneLengthAxis Y
ScaleFactor 1.00
[SegmentNames&Hierarchy]
#CHILD	PARENT
MASTER GLOBAL
root MASTER
chest root
L_mid_tent01 root
R_mid_tent01 root
spine01 root
Bip01_Neck chest
L_humerus chest
R_humerus chest
weapon_bone chest
Bip01_Head Bip01_Neck
eye_left_bone Bip01_Head
eye_right_bone Bip01_Head
L_forearm L_humerus
L_front_hand L_forearm
L_weapon_bone L_forearm
L_front_hand01_01 L_front_hand
L_front_hand02_01 L_front_hand
L_front_hand03_01 L_front_hand
L_front_hand01_02 L_front_hand01_01
L_front_hand02_02 L_front_hand02_01
L_front_hand03_02 L_front_hand03_01
R_forearm R_humerus
R_front_hand R_forearm
R_weapon_bone R_forearm
R_front_hand01_01 R_front_hand
R_front_hand02_01 R_front_hand
R_front_hand03_01 R_front_hand
R_front_hand01_02 R_front_hand01_01
R_front_hand02_02 R_front_hand02_01
R_front_hand03_02 R_front_hand03_01
null_rope01_connect L_mid_tent01
Rope1_Seg01 null_rope01_connect
Rope1_Seg02 Rope1_Seg01
Rope1_Seg03 Rope1_Seg02
Rope1_Seg04 Rope1_Seg03
Rope1_Seg05 Rope1_Seg04
Rope1_Seg06 Rope1_Seg05
Rope1_Seg07 Rope1_Seg06
Rope1_Seg09 Rope1_Seg07
L_mid_hand01 Rope1_Seg09
L_mid_hand02 Rope1_Seg09
L_mid_hand03 Rope1_Seg09
null_rope02_connect R_mid_tent01
Rope2_Seg01 null_rope02_connect
Rope2_Seg02 Rope2_Seg01
Rope2_Seg03 Rope2_Seg02
Rope2_Seg04 Rope2_Seg03
Rope2_Seg05 Rope2_Seg04
Rope2_Seg06 Rope2_Seg05
Rope2_Seg07 Rope2_Seg06
Rope2_Seg09 Rope2_Seg07
R_mid_hand01 Rope2_Seg09
R_mid_hand02 Rope2_Seg09
R_mid_hand03 Rope2_Seg09
spine02 spine01
spine03 spine02
pelvis spine03
null_rope03_connect pelvis
null_rope04_connect pelvis
Rope3_Seg01 null_rope03_connect
Rope3_Seg02 Rope3_Seg01
Rope3_Seg03 Rope3_Seg02
Rope3_Seg04 Rope3_Seg03
Rope3_Seg05 Rope3_Seg04
Rope3_Seg06 Rope3_Seg05
Rope3_Seg07 Rope3_Seg06
Rope3_Seg08 Rope3_Seg07
Rope3_Seg09 Rope3_Seg08
R_rear_hand01 Rope3_Seg09
R_rear_hand02 Rope3_Seg09
R_rear_hand03 Rope3_Seg09
Rope4_Seg01 null_rope04_connect
Rope4_Seg02 Rope4_Seg01
Rope4_Seg03 Rope4_Seg02
Rope4_Seg04 Rope4_Seg03
Rope4_Seg05 Rope4_Seg04
Rope4_Seg06 Rope4_Seg05
Rope4_Seg07 Rope4_Seg06
Rope4_Seg08 Rope4_Seg07
Rope4_Seg09 Rope4_Seg08
L_rear_hand01 Rope4_Seg09
L_rear_hand02 Rope4_Seg09
L_rear_hand03 Rope4_Seg09
[BasePosition]
#SegmentName Tx, Ty, Tz, Rx, Ry, Rz, BoneLength
MASTER 0.000000 0.000000 0.000000 -90.000000 0.000000 0.000000 10.000000 
root 0.000000 0.000000 0.000000 0.000000 0.000000 0.000000 10.000000 
chest 0.000000 0.000000 0.000000 0.000000 0.000000 0.000000 10.000000 
L_mid_tent01 0.000000 0.000000 0.000000 0.000000 0.000000 0.000000 10.000000 
R_mid_tent01 0.000000 0.000000 0.000000 0.000000 0.000000 0.000000 10.000000 
spine01 0.000000 0.000000 0.000000 0.000000 0.000000 0.000000 10.000000 
Bip01_Neck 0.000000 0.000000 0.000000 0.000000 0.000000 0.000000 10.000000 
L_humerus 0.000000 0.000000 0.000000 0.000000 0.000000 0.000000 10.000000 
R_humerus 0.000000 0.000000 0.000000 0.000000 0.000000 0.000000 10.000000 
weapon_bone 0.000000 0.000000 0.000000 0.000000 0.000000 0.000000 10.000000 
Bip01_Head 0.000000 0.000000 0.000000 0.000000 0.000000 0.000000 10.000000 
eye_left_bone 0.000000 0.000000 0.000000 0.000000 0.000000 0.000000 10.000000 
eye_right_bone 0.000000 0.000000 0.000000 0.000000 0.000000 0.000000 10.000000 
L_forearm 0.000000 0.000000 0.000000 0.000000 0.000000 0.000000 10.000000 
L_front_hand 0.000000 0.000000 0.000000 0.000000 0.000000 0.000000 10.000000 
L_weapon_bone 0.000000 0.000000 0.000000 0.000000 0.000000 0.000000 10.000000 
L_front_hand01_01 0.000000 0.000000 0.000000 0.000000 0.000000 0.000000 10.000000 
L_front_hand02_01 0.000000 0.000000 0.000000 0.000000 0.000000 0.000000 10.000000 
L_front_hand03_01 0.000000 0.000000 0.000000 0.000000 0.000000 0.000000 10.000000 
L_front_hand01_02 0.000000 0.000000 0.000000 0.000000 0.000000 0.000000 10.000000 
L_front_hand02_02 0.000000 0.000000 0.000000 0.000000 0.000000 0.000000 10.000000 
L_front_hand03_02 0.000000 0.000000 0.000000 0.000000 0.000000 0.000000 10.000000 
R_forearm 0.000000 0.000000 0.000000 0.000000 0.000000 0.000000 10.000000 
R_front_hand 0.000000 0.000000 0.000000 0.000000 0.000000 0.000000 10.000000 
R_weapon_bone 0.000000 0.000000 0.000000 0.000000 0.000000 0.000000 10.000000 
R_front_hand01_01 0.000000 0.000000 0.000000 0.000000 0.000000 0.000000 10.000000 
R_front_hand02_01 0.000000 0.000000 0.000000 0.000000 0.000000 0.000000 10.000000 
R_front_hand03_01 0.000000 0.000000 0.000000 0.000000 0.000000 0.000000 10.000000 
R_front_hand01_02 0.000000 0.000000 0.000000 0.000000 0.000000 0.000000 10.000000 
R_front_hand02_02 0.000000 0.000000 0.000000 0.000000 0.000000 0.000000 10.000000 
R_front_hand03_02 0.000000 0.000000 0.000000 0.000000 0.000000 0.000000 10.000000 
null_rope01_connect 0.000000 0.000000 0.000000 0.000000 0.000000 0.000000 10.000000 
Rope1_Seg01 0.000000 0.000000 0.000000 0.000000 0.000000 0.000000 10.000000 
Rope1_Seg02 0.000000 0.000000 0.000000 0.000000 0.000000 0.000000 10.000000 
Rope1_Seg03 0.000000 0.000000 0.000000 0.000000 0.000000 0.000000 10.000000 
Rope1_Seg04 0.000000 0.000000 0.000000 0.000000 0.000000 0.000000 10.000000 
Rope1_Seg05 0.000000 0.000000 0.000000 0.000000 0.000000 0.000000 10.000000 
Rope1_Seg06 0.000000 0.000000 0.000000 0.000000 0.000000 0.000000 10.000000 
Rope1_Seg07 0.000000 0.000000 0.000000 0.000000 0.000000 0.000000 10.000000 
Rope1_Seg09 0.000000 0.000000 0.000000 0.000000 0.000000 0.000000 10.000000 
L_mid_hand01 0.000000 0.000000 0.000000 0.000000 0.000000 0.000000 10.000000 
L_mid_hand02 0.000000 0.000000 0.000000 0.000000 0.000000 0.000000 10.000000 
L_mid_hand03 0.000000 0.000000 0.000000 0.000000 0.000000 0.000000 10.000000 
null_rope02_connect 0.000000 0.000000 0.000000 0.000000 0.000000 0.000000 10.000000 
Rope2_Seg01 0.000000 0.000000 0.000000 0.000000 0.000000 0.000000 10.000000 
Rope2_Seg02 0.000000 0.000000 0.000000 0.000000 0.000000 0.000000 10.000000 
Rope2_Seg03 0.000000 0.000000 0.000000 0.000000 0.000000 0.000000 10.000000 
Rope2_Seg04 0.000000 0.000000 0.000000 0.000000 0.000000 0.000000 10.000000 
Rope2_Seg05 0.000000 0.000000 0.000000 0.000000 0.000000 0.000000 10.000000 
Rope2_Seg06 0.000000 0.000000 0.000000 0.000000 0.000000 0.000000 10.000000 
Rope2_Seg07 0.000000 0.000000 0.000000 0.000000 0.000000 0.000000 10.000000 
Rope2_Seg09 0.000000 0.000000 0.000000 0.000000 0.000000 0.000000 10.000000 
R_mid_hand01 0.000000 0.000000 0.000000 0.000000 0.000000 0.000000 10.000000 
R_mid_hand02 0.000000 0.000000 0.000000 0.000000 0.000000 0.000000 10.000000 
R_mid_hand03 0.000000 0.000000 0.000000 0.000000 0.000000 0.000000 10.000000 
spine02 0.000000 0.000000 0.000000 0.000000 0.000000 0.000000 10.000000 
spine03 0.000000 0.000000 0.000000 0.000000 0.000000 0.000000 10.000000 
pelvis 0.000000 0.000000 0.000000 0.000000 0.000000 0.000000 10.000000 
null_rope03_connect 0.000000 0.000000 0.000000 0.000000 0.000000 0.000000 10.000000 
null_rope04_connect 0.000000 0.000000 0.000000 0.000000 0.000000 0.000000 10.000000 
Rope3_Seg01 0.000000 0.000000 0.000000 0.000000 0.000000 0.000000 10.000000 
Rope3_Seg02 0.000000 0.000000 0.000000 0.000000 0.000000 0.000000 10.000000 
Rope3_Seg03 0.000000 0.000000 0.000000 0.000000 0.000000 0.000000 10.000000 
Rope3_Seg04 0.000000 0.000000 0.000000 0.000000 0.000000 0.000000 10.000000 
Rope3_Seg05 0.000000 0.000000 0.000000 0.000000 0.000000 0.000000 10.000000 
Rope3_Seg06 0.000000 0.000000 0.000000 0.000000 0.000000 0.000000 10.000000 
Rope3_Seg07 0.000000 0.000000 0.000000 0.000000 0.000000 0.000000 10.000000 
Rope3_Seg08 0.000000 0.000000 0.000000 0.000000 0.000000 0.000000 10.000000 
Rope3_Seg09 0.000000 0.000000 0.000000 0.000000 0.000000 0.000000 10.000000 
R_rear_hand01 0.000000 0.000000 0.000000 0.000000 0.000000 0.000000 10.000000 
R_rear_hand02 0.000000 0.000000 0.000000 0.000000 0.000000 0.000000 10.000000 
R_rear_hand03 0.000000 0.000000 0.000000 0.000000 0.000000 0.000000 10.000000 
Rope4_Seg01 0.000000 0.000000 0.000000 0.000000 0.000000 0.000000 10.000000 
Rope4_Seg02 0.000000 0.000000 0.000000 0.000000 0.000000 0.000000 10.000000 
Rope4_Seg03 0.000000 0.000000 0.000000 0.000000 0.000000 0.000000 10.000000 
Rope4_Seg04 0.000000 0.000000 0.000000 0.000000 0.000000 0.000000 10.000000 
Rope4_Seg05 0.000000 0.000000 0.000000 0.000000 0.000000 0.000000 10.000000 
Rope4_Seg06 0.000000 0.000000 0.000000 0.000000 0.000000 0.000000 10.000000 
Rope4_Seg07 0.000000 0.000000 0.000000 0.000000 0.000000 0.000000 10.000000 
Rope4_Seg08 0.000000 0.000000 0.000000 0.000000 0.000000 0.000000 10.000000 
Rope4_Seg09 0.000000 0.000000 0.000000 0.000000 0.000000 0.000000 10.000000 
L_rear_hand01 0.000000 0.000000 0.000000 0.000000 0.000000 0.000000 10.000000 
L_rear_hand02 0.000000 0.000000 0.000000 0.000000 0.000000 0.000000 10.000000 
L_rear_hand03 0.000000 0.000000 0.000000 0.000000 0.000000 0.000000 10.000000 
#Beginning of Data. Separated by tabs
#Fr	Tx	Ty	Tz	Rx	Ry	Rz	SF
[MASTER]
21 0.000000 0.000000 0.000000 0.001660 0.001660 0.001660 0.000000
22 0.000000 0.000000 0.000000 0.001660 0.001660 0.001660 0.000000
[root]
21 27.760168 348.445282 1563.743164 -67.299484 -12.687819 -140.016220 1602.334961
22 26.464060 333.356873 1547.553223 -68.157654 -12.499371 -136.667679 1583.271240
[chest]
21 -84.512650 -34.090519 0.000000 -2.882403 -5.953197 176.476761 91.129311
22 -84.512650 -34.090519 0.000000 -2.877487 -4.961746 176.487747 91.129311
[L_mid_tent01]
21 27.299074 22.179317 -249.918671 108.880470 12.850467 147.234589 252.381668
22 27.299072 22.179312 -249.918671 106.090019 17.423529 143.686752 252.381668
[R_mid_tent01]
21 23.228794 24.509907 226.238495 -119.279655 -25.409775 31.091524 228.744751
22 23.228794 24.509907 226.238495 -123.023605 -20.694643 30.950184 228.744751
[spine01]
21 -0.361383 -0.195265 0.000000 0.001936 0.001328 21.105326 0.410763
22 -0.361383 -0.195265 0.000000 0.001936 0.001327 21.137186 0.410763
[Bip01_Neck]
21 165.484543 71.581718 0.000119 175.896118 1.177290 24.871183 180.302734
22 165.484543 71.581718 0.000119 175.896118 1.177290 24.871183 180.302734
[L_humerus]
21 -13.983130 -135.272980 -120.471481 -69.257050 22.364300 10.184154 181.680161
22 -13.983130 -135.272980 -120.471481 -72.324165 27.220598 11.517818 181.680161
[R_humerus]
21 -13.983309 -135.273102 125.287651 140.893707 -34.117725 -17.850418 184.909012
22 -13.983309 -135.273102 125.287651 140.350739 -35.139408 -18.820288 184.909012
[weapon_bone]
21 235.964890 -300.705902 0.000000 0.000000 -89.951546 -128.212341 382.234833
22 235.964890 -300.705902 0.000000 0.000000 -89.951546 -128.212341 382.234833
[Bip01_Head]
21 260.028687 78.441475 0.605928 39.791210 13.530707 -69.941582 271.603302
22 257.954254 82.854477 1.119425 37.398445 12.892785 -69.867043 270.936340
[eye_left_bone]
21 31.183126 158.426971 -75.529778 -104.218590 -85.597984 4.718000 178.258911
22 30.938261 158.282349 -75.482590 -104.218590 -85.597984 4.718000 178.067688
[eye_right_bone]
21 42.016830 159.311462 53.154507 75.788536 -85.594551 4.713911 173.121216
22 41.681633 159.141190 53.210705 75.788536 -85.594551 4.713911 172.900711
[L_forearm]
21 322.776093 0.000000 -0.000119 0.001488 0.001815 -11.332577 322.776093
22 322.776093 0.000000 -0.000119 0.001303 0.001952 -22.542513 322.776093
[L_front_hand]
21 241.149185 -0.042021 -3.300071 39.578915 3.347552 -5.332742 241.171753
22 241.149185 -0.042021 -3.300071 39.578922 3.347553 -5.332743 241.171753
[L_weapon_bone]
21 156.183838 0.000000 0.000000 0.000666 0.002251 -57.055668 156.183838
22 156.183838 0.000000 0.000000 0.000781 0.002214 -51.135471 156.183838
[L_front_hand01_01]
21 86.095154 20.947098 -0.655860 -0.289914 -0.523659 66.788704 88.609184
22 86.095154 20.947098 -0.655860 -0.289210 -0.524048 66.634743 88.609184
[L_front_hand02_01]
21 86.935165 -11.437475 24.513514 142.784698 -55.380455 -47.647202 91.046425
22 86.935165 -11.437475 24.513514 142.607056 -55.285198 -47.432209 91.046425
[L_front_hand03_01]
21 86.637497 -14.123976 -20.424902 -143.076859 53.603153 -49.636150 90.126129
22 86.637497 -14.123976 -20.424902 -142.912720 53.507496 -49.430859 90.126129
[L_front_hand01_02]
21 71.020905 -0.000179 0.000030 0.001534 0.001777 -8.378850 71.020905
22 71.020905 -0.000179 0.000030 0.001534 0.001777 -8.379166 71.020905
[L_front_hand02_02]
21 71.020927 -0.000119 0.000060 0.001534 0.001777 -8.378850 71.020927
22 71.020927 -0.000119 0.000060 0.001534 0.001777 -8.379166 71.020927
[L_front_hand03_02]
21 71.020905 -0.000060 0.000060 0.001534 0.001777 -8.378850 71.020905
22 71.020905 -0.000060 0.000060 0.001534 0.001777 -8.379166 71.020905
[R_forearm]
21 322.776428 -0.000060 0.000030 0.118737 -0.179121 -34.095474 322.776428
22 322.776428 -0.000060 0.000030 0.119763 -0.178436 -34.753033 322.776428
[R_front_hand]
21 238.847015 -0.006795 2.210259 -2.635298 -10.645461 -26.312506 238.857239
22 238.847015 -0.006795 2.210259 -2.635298 -10.645461 -26.312506 238.857239
[R_weapon_bone]
21 155.664093 0.002503 -0.000030 0.003487 0.001180 -90.988930 155.664078
22 155.664093 0.002503 -0.000030 0.003487 0.001180 -90.988930 155.664078
[R_front_hand01_01]
21 87.624611 14.231146 22.918642 -154.633499 -59.950619 61.746044 91.683487
22 87.624611 14.231146 22.918642 -154.633499 -59.950619 61.746044 91.683487
[R_front_hand02_01]
21 89.356956 14.367283 -19.491137 154.602661 58.302849 63.744389 92.579636
22 89.356956 14.367283 -19.491137 154.602661 58.302849 63.744389 92.579636
[R_front_hand03_01]
21 87.286232 -22.307278 -0.143439 0.162155 -0.423168 -75.767921 90.091743
22 87.286232 -22.307278 -0.143439 0.162155 -0.423168 -75.767921 90.091743
[R_front_hand01_02]
21 71.020905 0.000060 0.000119 0.002337 -0.000224 100.952568 71.020905
22 71.020905 0.000060 0.000119 0.002327 -0.000305 104.948051 71.020905
[R_front_hand02_02]
21 71.020844 -0.000030 -0.000119 0.002337 -0.000224 100.952568 71.020836
22 71.020844 -0.000030 -0.000119 0.002327 -0.000305 104.948051 71.020836
[R_front_hand03_02]
21 71.020905 0.000000 0.000030 0.002337 -0.000224 100.952568 71.020905
22 71.020905 0.000000 0.000030 0.002327 -0.000305 104.948051 71.020905
[null_rope01_connect]
21 328.732483 0.000000 -0.000238 -144.797821 34.428371 51.326572 328.732483
22 328.732483 0.000000 -0.000238 -137.791672 33.800781 61.276531 328.732483
[Rope1_Seg01]
21 -0.000026 0.000014 0.000057 58.444687 49.087559 70.703194 0.000065
22 -0.000026 0.000013 0.000052 64.943565 49.086651 77.690231 0.000060
[Rope1_Seg02]
21 139.999863 -0.000179 0.000000 -4.344048 -15.286447 3.951046 139.999863
22 139.999863 -0.000179 0.000000 -4.197780 -15.686264 6.052531 139.999863
[Rope1_Seg03]
21 139.999924 0.000060 -0.000060 -7.950648 -15.920816 2.852245 139.999924
22 139.999924 0.000060 -0.000060 -8.475032 -16.982014 5.466768 139.999924
[Rope1_Seg04]
21 139.999924 -0.000060 -0.000119 -16.552168 -18.959602 0.150176 139.999924
22 139.999924 -0.000060 -0.000119 -18.602911 -19.329731 3.563025 139.999924
[Rope1_Seg05]
21 139.999832 0.000119 -0.000060 -3.126392 -3.030755 -0.153174 139.999832
22 139.999832 0.000119 -0.000060 -3.249208 -2.228785 -0.484419 139.999832
[Rope1_Seg06]
21 139.999954 0.000119 -0.000060 12.197478 8.812246 4.662084 139.999954
22 139.999954 0.000119 -0.000060 12.022969 10.212369 1.694008 139.999954
[Rope1_Seg07]
21 139.999985 0.000060 0.000000 9.524348 9.672400 2.642226 139.999985
22 139.999985 0.000060 0.000000 6.637415 8.522821 -0.382503 139.999985
[Rope1_Seg09]
21 121.602913 0.000119 -0.000089 -89.122147 -1.357635 0.846487 121.602913
22 121.602913 0.000119 -0.000089 -55.233036 -1.358267 0.846446 121.602913
[L_mid_hand01]
21 103.859421 1.038730 8.195221 113.367744 -51.314983 -19.170864 104.187431
22 103.859421 1.038730 8.195221 116.315681 -55.993904 -22.824539 104.187431
[L_mid_hand02]
21 105.572853 -4.139662 -10.864139 -153.542084 37.220566 -49.958858 106.211075
22 105.572853 -4.139662 -10.864139 -157.246307 39.367386 -55.928040 106.211075
[L_mid_hand03]
21 104.641464 17.579376 -3.913581 -11.549925 14.892871 55.408329 106.179977
22 104.641464 17.579376 -3.913581 -10.157294 15.864441 60.654682 106.179977
[null_rope02_connect]
21 328.732849 0.000179 -0.000119 174.630249 0.505118 -104.640747 328.732849
22 328.732849 0.000179 -0.000119 170.763062 4.380702 -105.793617 328.732849
[Rope2_Seg01]
21 0.000095 0.000153 0.000048 98.449524 10.456877 -102.854813 0.000186
22 0.000095 0.000153 0.000050 100.521339 13.094196 -85.837929 0.000187
[Rope2_Seg02]
21 139.999741 -0.000060 -0.000119 -11.650679 15.481302 13.323911 139.999756
22 139.999741 -0.000060 -0.000119 -29.307983 21.005957 14.662839 139.999756
[Rope2_Seg03]
21 140.000107 0.000030 0.000000 -25.705696 28.719904 53.929623 140.000107
22 140.000107 0.000030 0.000000 -38.698578 15.713860 49.665657 140.000107
[Rope2_Seg04]
21 139.999802 0.000000 -0.000060 -8.827688 -2.515628 30.608978 139.999802
22 139.999802 0.000000 -0.000060 -7.326899 -9.170049 22.068878 139.999802
[Rope2_Seg05]
21 139.999985 -0.000060 0.000119 -1.216158 1.194157 27.786652 139.999985
22 139.999985 -0.000060 0.000119 -2.105350 -2.810402 27.789787 139.999985
[Rope2_Seg06]
21 139.999893 -0.000030 -0.000119 3.060598 0.913269 25.650038 139.999893
22 139.999893 -0.000030 -0.000119 4.733838 -2.657752 30.573589 139.999893
[Rope2_Seg07]
21 139.999893 0.000060 -0.000060 2.318396 0.453510 10.537466 139.999893
22 139.999893 0.000060 -0.000060 4.015348 -0.665647 12.036081 139.999893
[Rope2_Seg09]
21 121.338966 0.000089 -0.000060 33.793236 -1.359788 -0.847141 121.338966
22 121.338966 0.000089 -0.000060 33.793236 -1.359788 -0.847141 121.338966
[R_mid_hand01]
21 104.680779 11.144459 -10.335981 -38.685585 29.973904 34.690300 105.778534
22 104.680779 11.144459 -10.335981 -40.747456 26.812803 30.364283 105.778534
[R_mid_hand02]
21 104.070427 2.443552 8.231699 71.258492 -39.464275 12.704247 104.424065
22 104.070427 2.443552 8.231699 72.427025 -34.757431 10.772839 104.424065
[R_mid_hand03]
21 106.028137 -11.221827 -5.996406 -169.243027 11.659414 -44.056225 106.788818
22 106.028137 -11.221827 -5.996406 -168.283356 10.692839 -39.109001 106.788818
[spine02]
21 129.756927 0.001550 0.000119 0.340881 -4.046706 -12.650463 129.756927
22 129.756927 0.001550 0.000119 0.330849 -4.047675 -12.505740 129.756927
[spine03]
21 78.614044 0.081539 -4.899012 2.146176 3.699059 20.273912 78.766579
22 78.614044 0.081534 -4.899011 2.129598 3.704729 20.062355 78.766579
[pelvis]
21 169.435242 0.051022 0.000000 -0.061433 -0.179898 14.704082 169.435257
22 169.435242 0.051022 0.000000 -0.061327 -0.179934 14.636255 169.435257
[null_rope03_connect]
21 -1.257226 -2.466202 137.391083 -58.569885 -40.832939 128.565887 137.418976
22 -1.257226 -2.466202 137.391083 -58.156315 -43.747395 126.923508 137.418976
[null_rope04_connect]
21 -1.259640 -2.480268 -137.844437 -58.569885 -40.832939 128.565887 137.872513
22 -1.259640 -2.480268 -137.844437 -58.156315 -43.747395 126.923508 137.872513
[Rope3_Seg01]
21 0.000000 0.000000 0.000000 -108.351662 -22.568920 -124.241592 0.000000
22 0.000000 0.000000 0.000000 -107.733139 -21.807747 -125.572006 0.000000
[Rope3_Seg02]
21 139.999924 -0.000119 0.000060 7.652945 12.967366 4.300301 139.999924
22 139.999924 -0.000119 0.000060 5.989927 10.869018 5.463715 139.999924
[Rope3_Seg03]
21 139.999924 -0.000119 0.000119 18.303816 18.709396 3.818731 139.999924
22 139.999924 -0.000119 0.000119 16.777973 17.081198 6.760139 139.999924
[Rope3_Seg04]
21 139.999924 0.000119 0.000000 22.122818 15.375611 -1.286598 139.999924
22 139.999924 0.000119 0.000000 27.722609 16.359665 2.048362 139.999924
[Rope3_Seg05]
21 139.999924 -0.000238 0.000060 33.498199 21.470289 -13.560583 139.999924
22 139.999924 -0.000238 0.000060 44.134075 21.757946 -9.907660 139.999924
[Rope3_Seg06]
21 139.999893 -0.000119 -0.000060 15.472541 8.782250 -22.737846 139.999893
22 139.999893 -0.000119 -0.000060 18.968990 7.808707 -23.371698 139.999893
[Rope3_Seg07]
21 139.999771 0.000060 -0.000119 4.045748 0.878010 -10.155707 139.999771
22 139.999771 0.000060 -0.000119 4.706340 -0.265645 -11.372972 139.999771
[Rope3_Seg08]
21 139.999985 -0.000060 0.000000 1.774986 0.090850 -4.796225 139.999985
22 139.999985 -0.000060 0.000000 1.850161 -0.496770 -5.003783 139.999985
[Rope3_Seg09]
21 90.185997 -0.000179 -0.000060 42.451580 -1.359541 -0.847380 90.185997
22 90.185997 -0.000179 -0.000060 39.644428 -1.359917 -0.845961 90.185997
[R_rear_hand01]
21 103.366196 -6.073594 -10.757982 -169.120041 22.271713 -52.514664 104.101845
22 103.366196 -6.073594 -10.757982 -166.104523 20.584724 -44.265163 104.101845
[R_rear_hand02]
21 100.509819 12.039542 -7.992327 -25.410219 30.297220 49.738018 101.543350
22 100.509819 12.039542 -7.992327 -29.205854 26.684607 41.795719 101.543350
[R_rear_hand03]
21 101.539970 5.215704 5.435467 80.612038 -52.579044 11.342816 101.819031
22 101.539970 5.215704 5.435467 81.972137 -44.810406 9.543637 101.819031
[Rope4_Seg01]
21 -0.000013 -0.000029 -0.000153 -92.038994 33.704731 98.535324 0.000156
22 -0.000013 -0.000026 -0.000153 -85.939919 39.863949 106.521507 0.000155
[Rope4_Seg02]
21 139.999985 0.000060 0.000119 0.068545 3.112283 1.369065 139.999985
22 139.999985 0.000060 0.000119 0.032290 3.236407 1.259297 139.999985
[Rope4_Seg03]
21 139.999924 0.000000 -0.000238 0.126790 4.437540 1.951781 139.999924
22 139.999924 0.000000 -0.000238 0.160758 4.550523 2.384044 139.999924
[Rope4_Seg04]
21 139.999985 0.000000 0.000119 0.148634 8.415723 10.834497 139.999985
22 139.999985 0.000000 0.000119 0.041153 7.346856 16.489752 139.999985
[Rope4_Seg05]
21 139.999802 -0.000060 -0.000119 2.463681 11.482654 -3.858238 139.999802
22 139.999802 -0.000060 -0.000119 2.862189 10.877447 -29.401728 139.999802
[Rope4_Seg06]
21 139.999924 0.000000 0.000060 5.191991 -1.376819 -19.950058 139.999924
22 139.999924 0.000000 0.000060 1.046036 0.990772 -11.393946 139.999924
[Rope4_Seg07]
21 139.999802 0.000000 0.000000 0.852113 0.023098 -4.876216 139.999802
22 139.999802 0.000000 0.000000 0.287651 0.712641 -3.340378 139.999802
[Rope4_Seg08]
21 139.999924 0.000000 0.000119 -1.157596 0.081519 -2.378327 139.999924
22 139.999924 0.000000 0.000119 -1.384185 0.370839 -1.788420 139.999924
[Rope4_Seg09]
21 90.185791 0.000060 0.000060 -178.634659 2.228979 0.849426 90.185791
22 90.185791 0.000060 0.000060 179.050232 2.231209 0.848861 90.185791
[L_rear_hand01]
21 101.696655 -8.392275 -7.654577 -25.765186 -29.999708 130.968674 102.329041
22 101.696655 -8.392275 -7.654577 -27.785692 -28.167513 135.122620 102.329041
[L_rear_hand02]
21 102.726799 -1.568258 5.773216 80.753731 51.907436 168.837830 102.900848
22 102.726799 -1.568258 5.773216 81.501305 47.889668 169.811890 102.900848
[L_rear_hand03]
21 104.552910 9.721220 -10.420293 -168.847382 -22.142536 -128.209076 105.519653
22 104.552910 9.721220 -10.420293 -167.262024 -21.299606 -132.491074 105.519653
